<svg id="Capa_1" enable-background="new 0 0 512.005 512.005" height="512" viewBox="0 0 512.005 512.005" width="512" xmlns="http://www.w3.org/2000/svg"><g><g><path d="m154.511 89.694v146.886c0 36.882 29.898 66.78 66.78 66.78h-.889v58.774h71.2v-58.774h-.889c36.882 0 66.78-29.898 66.78-66.78v-146.886z" fill="#ffe5c2"/><path d="m329.079 89.694v146.886c0 36.882-29.01 66.78-65.891 66.78v58.774h28.414v-58.774h-.889c36.882 0 66.78-29.898 66.78-66.78v-146.886z" fill="#fed2a4"/><path d="m449.017 504.503h-386.029l20.025-93.692c3.62-17.646 17.897-31.144 35.726-33.763l22.152-3.254 79.511-11.658h71.202l79.511 11.658 22.152 3.254c17.829 2.619 32.106 16.116 35.726 33.763z" fill="#ffe270"/><path d="m428.993 410.811c-3.62-17.646-17.897-31.144-35.726-33.762l-22.152-3.254-79.511-11.658h-28.414l79.511 11.658c17.829 2.619 32.106 16.116 35.726 33.763l20.025 96.945h50.567z" fill="#ffd15b"/><path d="m154.511 219.773h-25.495c-8.651 0-15.663-7.013-15.663-15.663v-31.227c0-8.651 7.013-15.663 15.663-15.663h25.495z" fill="#ffe5c2"/><path d="m131.502 157.223h23.01v62.55h-23.01z" fill="#fed2a4"/><path d="m357.493 219.773h25.495c8.651 0 15.663-7.013 15.663-15.663v-31.227c0-8.651-7.013-15.663-15.663-15.663h-25.495z" fill="#ffe5c2"/><path d="m398.652 172.883v31.23c0 8.65-7.01 15.66-15.66 15.66h-23.01c8.65 0 15.66-7.01 15.66-15.66v-31.23c0-8.65-7.01-15.66-15.66-15.66h23.01c8.65 0 15.66 7.01 15.66 15.66z" fill="#fed2a4"/><circle cx="256.002" cy="431.248" fill="#8795de" r="36.688"/><path d="m256.002 394.56c-4.332 0-8.487.756-12.345 2.135 14.188 5.07 24.343 18.623 24.343 34.553s-10.155 29.483-24.343 34.553c3.859 1.379 8.013 2.135 12.345 2.135 20.262 0 36.688-16.426 36.688-36.688s-16.425-36.688-36.688-36.688z" fill="#7588d8"/><path d="m128.433 157.219h26.079v-37.268s26.299 13.929 46.376 4.097 19.516-34.353 19.516-34.353 25.463 69.585 87.163 48.282c0 0 16.853 33.568 49.928 19.242h26.079s38.132-30.713 10.274-71.681c0 0 15.535-69.264-55.716-53.247 0 0-40.285-50.592-94.225-7.22 0 0-54.107-34.577-91.372 13.765 0 0-35.627-4.916-47.098 19.664s7.918 42.606 7.918 42.606-20.098 44.22 15.078 56.113z" fill="#766e6e"/><path d="m393.846 85.538s15.535-69.263-55.716-53.247c0 0-25.381-31.864-62.822-23.328 10.527 12.335 16.838 23.328 16.838 23.328 71.251-16.016 55.716 53.247 55.716 53.247 24.223 35.623-7.876 66.177-16.666 73.544 7.16 2.411 15.931 2.626 26.297-1.864h26.079c0 .001 38.132-30.712 10.274-71.68z" fill="#635b5b"/></g><g><path d="m456.351 502.936-20.012-93.631c-4.239-20.666-21.111-36.61-41.983-39.676l-95.254-13.973v-45.266c16.826-1.88 32.399-9.402 44.458-21.611 13.821-13.992 21.433-32.529 21.433-52.196v-9.311h17.995c12.772 0 23.164-10.391 23.164-23.163v-31.228c0-7.602-3.682-14.359-9.355-18.585 3.053-3.737 6.41-8.578 9.139-14.351 6.125-12.956 10.19-33.006-4.178-56.005 1.407-8.991 3.7-34.373-11.749-49.814-10.778-10.773-27.307-14.146-49.182-10.05-6.561-6.798-22.883-21.144-45.793-23.688-17.487-1.936-34.891 3.345-51.78 15.725-5.879-3.032-16.786-7.823-29.999-9.714-17.825-2.551-43.087-.187-64.064 24.636-3.996-.204-10.32-.201-17.222 1.03-16.038 2.859-27.563 10.903-33.33 23.262-9.377 20.092-1.498 37.99 6.036 47.389-2.972 8.446-7.811 26.62-1.22 41.821 2.085 4.808 5.08 8.889 8.948 12.226-4.05 4.173-6.55 9.857-6.55 16.117v31.228c0 12.772 10.392 23.163 23.164 23.163h17.995v9.311c0 19.667 7.611 38.204 21.433 52.196 12.059 12.208 27.632 19.73 44.458 21.611v45.266l-95.254 13.973c-20.872 3.065-37.744 19.01-41.971 39.615l-20.024 93.691c-.866 4.051 1.716 8.036 5.767 8.901 4.048.866 8.036-1.716 8.901-5.767l20.037-93.752c2.977-14.505 14.819-25.697 29.47-27.85l13.562-1.989v122.023c0 4.143 3.357 7.5 7.5 7.5s7.5-3.357 7.5-7.5v-124.221l72.558-10.643h70.109l72.558 10.643v31.764c0 4.143 3.357 7.5 7.5 7.5s7.5-3.357 7.5-7.5v-29.563l13.562 1.989c14.65 2.152 26.493 13.345 29.482 27.91l20.024 93.691c.752 3.522 3.864 5.935 7.326 5.935.52 0 1.047-.055 1.575-.168 4.05-.865 6.632-4.851 5.766-8.901zm-65.199-298.827c0 4.501-3.662 8.163-8.164 8.163h-17.994v-47.554h17.994c4.502 0 8.164 3.662 8.164 8.163zm-278.92-142.437c8.964-19.209 38.991-15.444 39.275-15.407 2.662.361 5.322-.721 6.965-2.851 32.542-42.213 79.427-13.269 81.395-12.024 2.711 1.733 6.229 1.543 8.738-.475 19.868-15.977 39.783-19.952 59.199-11.812 15.03 6.301 24.38 17.761 24.459 17.859 1.79 2.247 4.704 3.278 7.512 2.646 18.663-4.195 31.987-2.481 39.6 5.098 6.431 6.402 8.097 16.382 8.361 23.626.312 8.544-1.195 15.51-1.208 15.564-.454 2.023-.05 4.145 1.116 5.858 20.459 30.087-.292 53.621-6.929 59.964h-23.222c-1.058 0-2.063.221-2.976.616-.001.001-.003.001-.005.002-10.992 4.761-20.604 3.787-29.386-2.978-7.068-5.446-10.835-12.702-10.858-12.748-1.304-2.596-3.936-4.136-6.704-4.136-.813 0-1.64.133-2.446.411-53.914 18.611-76.732-41.226-77.673-43.77-1.26-3.445-4.824-5.479-8.436-4.792-3.606.682-6.189 3.872-6.105 7.54.005.198.271 19.813-15.316 27.447-16.339 8.002-39.35-3.876-39.567-3.989-4.219-2.389-11.123.513-11.01 6.628v29.768h-17.283c-6.156-2.318-10.25-5.962-12.494-11.11-6.094-13.981 2.862-34.21 2.947-34.399 1.321-2.907.623-6.363-1.689-8.566-.625-.594-15.205-14.803-6.26-33.97zm49.78 174.911v-44.371c0-4.143-3.357-7.5-7.5-7.5s-7.5 3.357-7.5 7.5v20.061h-17.995c-4.502 0-8.164-3.662-8.164-8.163v-31.228c0-4.501 3.662-8.163 8.164-8.163h25.418c.026 0 .051.004.077.004 4.143 0 7.5-3.357 7.5-7.5v-26.103c10.747 3.562 27.547 6.828 42.174-.336 9.782-4.79 15.534-12.288 18.915-19.589 3.238 5.062 7.325 10.58 12.323 15.811 19.185 20.077 42.88 26.875 68.832 19.836 2.433 3.466 6.172 8.021 11.218 12.012 6.105 4.828 14.87 9.453 26.042 9.453 2.687 0 5.515-.271 8.477-.868v69.146c0 32.258-26.224 58.84-58.462 59.27h-21.07c-4.143 0-7.5 3.357-7.5 7.5s3.357 7.5 7.5 7.5h13.642v43.78h-56.199v-51.28c.048-3.794-3.249-7.553-7.403-7.499-32.251-.418-58.489-27.006-58.489-59.273z"/><path d="m371.115 439.747c-4.143 0-7.5 3.357-7.5 7.5v57.256c0 4.143 3.357 7.5 7.5 7.5s7.5-3.357 7.5-7.5v-57.256c0-4.142-3.358-7.5-7.5-7.5z"/><path d="m304.456 402.096-11.362 5.18c-7.882-12.153-21.559-20.216-37.091-20.216-24.365 0-44.188 19.823-44.188 44.188 0 4.264.619 8.384 1.752 12.288l-11.009 5.02c-3.769 1.719-5.432 6.167-3.713 9.936 1.259 2.761 3.981 4.391 6.829 4.391 1.04 0 2.098-.218 3.106-.678l11.365-5.182c8.031 11.141 21.108 18.414 35.859 18.414 24.365 0 44.188-19.823 44.188-44.188 0-3.503-.422-6.907-1.196-10.177l11.683-5.327c3.769-1.719 5.432-6.167 3.713-9.936-1.719-3.77-6.166-5.433-9.936-3.713zm-77.642 29.152c0-16.095 13.094-29.188 29.188-29.188 9.466 0 17.89 4.532 23.227 11.538l-51.8 23.618c-.402-1.928-.615-3.923-.615-5.968zm58.377 0c0 16.095-13.094 29.188-29.188 29.188-8.667 0-16.46-3.801-21.81-9.819l50.747-23.138c.159 1.235.251 2.491.251 3.769z"/><path d="m318.064 113.426c3.688 1.692 7.601 2.522 11.486 2.522 6.061 0 12.054-2.021 17.016-5.944 3.249-2.57 3.8-7.286 1.23-10.535s-7.286-3.799-10.535-1.23c-3.696 2.924-8.655 3.52-12.941 1.555-4.286-1.967-7.069-6.114-7.265-10.825-.172-4.139-3.708-7.377-7.804-7.183-4.139.171-7.354 3.665-7.183 7.804.43 10.372 6.559 19.507 15.996 23.836z"/><path d="m249.37 244.893c3.674 1.249 7.478 1.858 11.259 1.858 8.402 0 16.691-3.009 23.177-8.692 3.116-2.729 3.429-7.468.698-10.583-2.729-3.115-7.469-3.427-10.583-.698-5.386 4.72-12.943 6.218-19.721 3.914-6.784-2.307-11.862-8.104-13.254-15.128-.806-4.063-4.753-6.698-8.814-5.9-4.063.806-6.705 4.752-5.9 8.814 2.43 12.266 11.296 22.387 23.138 26.415z"/><path d="m257.03 204.027c4.143 0 7.5-3.357 7.5-7.5v-16.367c0-4.143-3.357-7.5-7.5-7.5s-7.5 3.357-7.5 7.5v16.367c0 4.143 3.357 7.5 7.5 7.5z"/></g></g></svg>